<svg width="1018" height="526" viewBox="0 0 1018 526" fill="none" xmlns="http://www.w3.org/2000/svg">
<path d="M141.117 482.424C142.631 486.536 144.012 490.247 145.262 494.008C145.859 495.805 146.472 497.934 144.633 499.221C142.495 500.716 140.855 498.914 139.598 497.402C134.713 491.527 131.436 484.507 127.777 477.766C126.975 476.287 125.999 474.799 125.648 473.179C124.083 465.973 117.36 466.604 113.095 463.546C112.001 462.763 110.716 463.909 109.726 464.709C103.065 470.094 95.6595 470.21 87.8712 468.585C77.4406 466.408 68.2711 461.741 61.19 453.142C56.0522 446.903 57.0882 443.458 64.7077 442.088C80.7672 439.2 94.9161 444.444 107.429 455.07C110.205 457.428 112.991 458.883 117.188 459.282C114.328 455.492 110.442 454.179 107.752 451.409C98.0754 441.447 87.3738 434.902 73.2492 437.217C71.0136 437.584 68.4584 436.039 66.1115 435.186C64.4096 434.568 62.6315 433.604 62.7134 431.323C62.8024 428.846 64.6551 427.802 66.622 427.283C71.1654 426.084 75.7606 426.912 81.419 427.391C77.2132 421.695 73.0801 417.049 70.0081 411.703C65.9082 404.567 60.559 401.146 52.7697 399.459C35.9954 395.826 21.4475 387.278 10.7888 372.361C7.16928 367.296 7.74953 365.968 13.2328 363.214C20.8093 359.407 28.1461 360.57 35.3472 364.097C39.1646 365.967 42.7571 368.364 46.5543 370.583C45.3121 364.48 42.4983 359.904 37.8128 356.175C30.556 350.399 23.1269 344.792 16.8534 337.687C13.2841 333.645 10.0253 329.4 8.00759 324.237C7.2141 322.207 5.8353 319.688 8.06665 317.982C10.272 316.297 12.0848 318.353 13.5969 319.92C17.5491 324.017 21.1655 328.504 26.1525 331.995C31.1297 325.171 32.3624 332.998 35.9943 335.896C33.7196 325.88 32.6573 316.857 31.0922 307.945C30.339 303.657 26.0895 301.805 22.8535 299.579C14.012 293.498 6.21582 286.505 3.07216 275.14C0.316437 265.179 -0.590108 255.053 0.371636 244.696C0.805426 240.024 2.91581 239.596 6.04276 241.82C10.8779 245.259 14.3086 250.136 17.2397 255.403C21.9984 263.953 25.7113 272.981 27.751 282.745C28.0086 283.978 28.4388 285.17 29.1614 286.335C29.1618 271.631 30.6403 257.131 32.4673 242.668C33.0383 238.147 33.787 233.642 34.6795 229.181C36.2933 221.115 34.9962 213.571 32.1967 205.974C22.3019 179.121 24.5015 153.44 39.4328 129.237C43.302 122.965 45.9019 123.098 49.256 129.656C52.1323 135.279 53.2805 141.441 53.38 147.789C53.502 155.576 53.4091 163.366 53.4091 171.77C59.7328 165.43 62.1318 157.918 62.2755 149.333C62.4276 140.251 64.5729 131.642 67.8777 123.342C68.5699 121.603 69.4625 119.932 70.4378 118.355C71.4257 116.757 72.6545 115.009 74.7425 116.142C76.5869 117.144 76.7369 119.182 76.3715 121.148C75.6092 125.248 74.7294 129.324 73.9555 133.422C73.6727 134.919 73.4273 136.531 74.9227 137.534C76.5279 138.611 77.9838 138.062 79.2897 136.814C82.7131 133.544 86.1298 130.266 90.0219 126.538C86.5644 124.581 86.0515 121.855 86.8714 118.588C92.2612 97.1089 101.684 78.2898 118.063 64.0363C121.678 60.8906 125.719 58.4973 129.969 56.5253C134.831 54.269 136.824 55.7892 136.001 61.3708C133.891 75.6951 129.344 88.9802 120.833 100.476C120.062 101.518 119.305 102.576 118.593 103.665C118.416 103.936 118.443 104.36 118.245 105.4C128.469 99.7715 138.403 94.4742 148.894 90.5441C150.987 89.7599 151.59 87.6657 152.109 85.6089C153.188 81.3324 155.739 78.3486 159.111 75.914C169.152 68.6626 180.272 64.3494 192.105 62.2039C195.484 61.5913 199.635 61.1449 201.302 65.7613C202.931 70.2733 199.668 72.7215 196.952 75.189C196.293 75.7881 195.465 76.1751 194.715 76.6596C194.92 77.0941 195.125 77.5287 195.33 77.9633C201.934 77.5752 208.567 77.4683 215.138 76.7345C225.472 75.5806 235.708 76.7496 245.947 77.732C250.013 78.122 253.174 77.8688 256.466 74.4024C263.334 67.1715 272.221 63.5141 281.438 61.0338C286.561 59.6551 290.602 57.49 292.137 51.4368C292.711 49.1721 294.481 47.2297 295.82 45.2273C296.317 44.4822 297.514 43.3169 297.758 43.4742C303.086 46.9024 305.613 40.793 309.49 39.477C318.343 36.4726 332.775 44.1549 335.217 53.636C335.466 54.6056 335.724 55.6834 335.017 56.322C331.04 59.9124 330.748 65.3707 328.809 69.9917C325.461 77.9743 318.443 81.6162 310.346 79.5895C308.655 79.1662 307.018 78.4938 304.834 77.761C306.11 81.267 307.999 83.0532 310.822 84.1051C317.362 86.5413 323.691 87.8237 330.913 86.6782C345.884 84.3036 360.378 86.5498 372.849 96.8686C375.413 98.9904 379.185 101.427 377.8 105.371C376.544 108.946 372.361 108.244 369.235 108.313C363.155 108.448 357.387 106.219 351.096 105.853C352.477 106.688 353.768 107.882 355.251 108.303C370.12 112.528 380.282 123.724 390.218 135.253C392.988 138.467 395.622 141.819 398.259 145.161C399.356 146.55 401.313 147.963 399.993 150.012C398.509 152.313 396.471 150.667 394.691 150.055C379.009 144.661 367.216 133.726 355.664 121.39C338.454 103.012 318.473 88.9632 291.426 88.0248C294.303 89.5239 296.041 90.4938 297.827 91.3505C330.681 107.114 359.722 129.342 387.776 153.075C395.635 159.724 403.614 164.692 413.552 166.471C422.658 168.101 431.688 170.577 439.292 176.673C441.403 178.366 445.15 180.286 443.544 183.563C441.884 186.95 438.489 184.599 435.94 183.548C432.127 181.976 428.348 180.337 424.078 179.851C421.767 182.64 423.154 184.077 425.752 185.122C432.897 187.995 439.908 191.36 447.212 193.647C459.909 197.623 468.998 206.86 477.978 216.413C478.847 217.338 479.853 218.457 479.056 219.899C477.947 221.906 476.286 221.006 474.785 220.513C466.169 217.681 457.559 214.831 448.446 212.669C458.747 223.164 469.049 233.659 480.139 244.958C481.761 236.834 484.796 230.64 490.216 225.845C502.461 215.013 522.531 218.391 529.57 232.663C533.383 240.393 531.748 247.779 525.165 252.432C523.384 251.623 523.993 249.882 523.949 248.49C523.848 245.258 523.853 242.057 523.111 238.858C520.234 226.445 511.845 221.045 501.293 224.963C491.164 228.724 487.02 239.553 491.605 250.623C494.512 257.64 498.459 264.045 503.35 269.59C515.184 283.003 526.918 296.553 540.436 308.112C541.659 309.158 542.982 310.071 544.793 311.455C548.668 305.835 550.379 299.816 550.537 293.298C550.718 285.864 545.283 282.741 540.594 278.594C549.355 278.594 558.117 278.594 568.478 278.594C559.764 289.294 557.251 301.218 552.016 311.68C550.27 315.168 550.324 317.211 553.534 319.679C564.32 327.973 573.745 338.39 586.486 343.611C587.051 343.843 587.413 344.642 588.004 345.332C585.435 348.715 581.731 346.124 578.133 348.239C588.014 358.95 598.472 368.387 609.709 377.294C606.741 370.812 603.76 364.336 600.813 357.843C600.203 356.501 599.294 355.057 600.526 353.629C601.838 352.105 603.246 353.059 604.33 353.958C615.963 363.608 628.45 372.254 637.118 385.444C639.999 389.827 642.351 394.502 643.519 399.783C646.157 411.711 647.402 413.39 658.948 420.284C656.178 411.367 654.139 402.812 654.077 393.921C654.054 390.573 653.01 386.009 656 384.382C659.455 382.502 661.926 386.738 664.426 388.905C678.916 401.463 684.177 419.119 687.325 437.773C687.959 441.526 689.361 443.841 692.355 445.801C709.795 457.222 727.111 468.906 747.191 474.468C763.975 479.117 781.09 480.694 798.376 479.903C807.754 479.474 817.119 478.626 826.358 476.48C826.157 474.953 825.058 475.3 824.316 475.314C806.988 475.632 790.959 471.02 776.222 461.149C770.339 457.208 764.049 454.082 757.458 451.687C755.993 451.154 754.1 450.867 754.158 448.596C754.211 446.52 755.926 445.808 757.376 445.218C780.556 435.79 802.957 436.843 824.074 451.562C829.562 455.388 834.39 460.284 839.683 464.452C849.572 472.236 855.894 471.679 864.539 462.517C870.526 456.172 875.904 449.379 878.267 440.442C880.192 433.16 881.519 426.103 876.039 419.531C873.832 416.884 872.897 413.093 872.505 409.487C872.028 405.105 870.118 403.124 865.979 402.042C857.378 399.791 850.764 394.63 848.975 384.562C847.436 375.899 850.741 370.236 858.675 367.658C860.532 367.055 862.519 366.376 864.401 366.503C868.906 366.807 870.291 364.865 870.89 360.048C872.168 349.779 880.818 347.61 889.739 350.934C896.647 353.508 904.39 356.476 911.752 356.463C920.123 356.449 925.264 359.473 925.335 368.548C925.353 370.829 925.697 373.321 924.988 375.354C922.814 381.587 925.502 384.453 930.565 386.472C934.451 388.021 937.847 390.595 939.881 394.625C942.04 398.903 942.422 403.437 939.898 407.672C937.529 411.649 933.649 412.876 929.621 411.906C926.031 411.042 924.276 412.005 922.471 415.465C920.015 420.171 915.627 422.347 910.651 421.009C906.775 419.966 904.236 421.021 901.883 424.21C900.109 426.615 897.814 428.947 894.989 429.313C889.81 429.985 888.133 433.665 886.529 438.153C885.142 442.037 883.009 445.616 881.197 449.324C879.483 452.832 877.067 455.957 875.927 460.448C884.101 457.947 891.344 454.983 894.112 444.765C897.344 448.942 899.958 447.914 903.169 445.708C929.778 427.428 950.986 404.093 963.542 372.532C965.291 368.136 967.888 364.049 965.217 358.675C964.009 356.244 966.2 353.266 967.563 350.796C969.901 346.555 972.028 342.275 973.817 337.656C979.282 323.54 971.367 313.396 965.629 302.595C961.153 294.171 955.642 286.279 953.791 276.552C952.517 269.856 951.716 263.055 950.764 256.291C950.541 254.707 950.849 253.024 952.411 252.475C954.385 251.78 955.241 253.634 956.063 255.048C963.366 267.615 972.424 279.109 976.583 293.605C976.865 294.586 977.498 295.451 978.693 297.789C980.529 261.411 977.497 227.651 962.877 196.028C940.008 206.597 921.768 194.862 903.906 183.022C897.114 178.52 898.011 174.835 905.959 172.373C918.148 168.597 930.236 170.591 942.104 174.588C945.472 175.723 948.761 177.124 953.078 177.551C949.711 172.66 946.626 167.505 942.914 162.936C936.616 155.185 929.794 147.956 922.689 141.017C918.639 137.061 914.092 135.101 908.78 134.859C897.426 134.34 886.067 133.947 874.715 133.373C870.639 133.167 867.166 133.947 864.038 137.168C861.385 139.9 858.128 142.009 854.577 142.444C852.201 141.735 854.076 139.51 852.904 138.544C837.169 142.438 828.373 135.891 825.839 118.504C825.383 115.377 825.582 113.007 829.055 111.877C830.807 111.308 832.389 109.718 833.757 108.273C844.996 96.4007 853.62 96.7681 863.493 109.702C864.795 107.583 862.159 105.345 863.966 102.923C868.559 103.024 870.492 106.048 870.868 110.716C872.098 125.948 873.989 127.856 888.315 128.322C893.778 128.5 899.199 128.374 905.104 126.533C900.127 121.82 895.017 118.462 889.887 115.224C867.143 100.865 843.469 88.851 817.466 82.818C807.712 80.5549 797.62 82.9084 787.884 80.1316C785.213 79.3701 783.259 81.8533 781.45 83.5746C776.137 88.6286 771.008 93.9038 765.753 99.0284C757.725 106.857 748.237 111.993 738.025 115.542C734.778 116.67 730.421 118.386 728.004 115.115C725.597 111.858 729.549 108.989 731.017 106.178C734.641 99.2335 739.216 93.0069 745.043 87.7212C742.892 86.1383 741.423 87.1843 739.987 87.6684C736.601 88.8093 733.282 90.1809 729.884 91.273C719.21 94.7038 710.079 100.079 705.297 111.767C704.041 114.838 701.731 117.434 699.796 120.159C698.514 121.964 697.25 124.039 694.611 122.01C693.104 120.852 691.899 122.233 690.862 123.172C688.288 125.502 685.847 128.001 683.287 130.35C681.611 131.888 679.906 134.644 677.451 132.548C675.073 130.518 677.02 127.977 677.973 125.843C678.853 123.874 680.044 122.065 681.645 119.211C670.797 126.108 662.178 134.285 653.361 142.129C646.535 148.201 640.135 154.821 633.5 161.143C631.955 162.616 631.367 164.622 630.521 166.48C622.326 184.489 613.45 202.034 600.87 217.089C599.923 218.222 599.015 219.397 598.019 220.479C597.102 221.477 595.983 222.185 594.695 221.332C593.472 220.521 593.321 219.157 593.675 217.787C599.557 194.993 604.467 171.547 625.026 157.628C631.378 153.328 634.207 145.82 639.898 140.794C663.021 120.37 686.965 101.475 715.039 89.4332C715.49 89.2397 715.869 88.851 717.107 87.9568C699.938 89.7838 685.622 96.2878 672.441 106.507C662.58 114.152 653.942 123.011 645.73 132.567C637.388 142.273 625.674 145.94 614.71 150.816C613.51 151.349 612.213 151.525 611.486 149.962C610.82 148.53 611.548 147.383 612.409 146.367C622.541 134.419 631.715 121.394 645.034 113.027C645.477 112.748 645.832 112.311 646.788 111.434C639.82 110.012 633.233 108.95 627.177 106.027C624.887 104.921 621.248 104.866 621.114 101.414C620.987 98.1506 624.365 97.1958 626.559 95.7874C637.282 88.9061 649.069 86.8907 661.377 87.2195C664.675 87.3076 668.058 87.994 671.834 86.7176C670.774 80.1611 670.306 73.7671 672.79 67.436C669.796 66.0094 667.134 65.0237 664.737 63.5463C657.46 59.0627 656.418 50.8743 662.168 44.4776C662.291 44.341 662.523 44.2468 662.555 44.0966C664.399 35.3257 671.09 28.9102 673.117 20.485C675.302 11.4028 679.726 7.10616 687.977 10.6938C696.099 14.2249 702.369 15.0307 707.112 5.54662C708.232 3.30589 710.97 2.36729 713.282 1.27314C717.932 -0.927395 722.072 -0.0317738 725.553 3.59129C728.898 7.07309 728.564 11.4928 727.244 15.8638C726.759 17.4673 726.04 18.9895 725.308 20.8565C732.758 25.7257 734.089 32.355 730.004 40.3165C729.02 42.2332 729.837 43.5445 730.879 44.9317C734.881 50.2586 736.701 56.184 734.787 63.3098C743.075 63.3098 751.021 63.1557 758.959 63.3471C769.988 63.613 780.905 64.9383 791.617 67.9452C796.645 69.3566 801.577 71.1279 805.722 74.4646C809.618 77.6009 813.905 78.6778 819.261 79.0691C815.543 74.3068 810.324 73.0296 806.399 69.7787C804.299 68.039 801.959 66.5777 800.076 64.6078C798.399 62.8539 797.391 60.4424 798.418 57.8285C799.426 55.2629 801.552 54.2825 804.012 54.199C805.782 54.1389 807.651 53.9373 809.316 54.4246C819.07 57.2788 828.895 59.9659 837.687 65.6448C843.237 69.2295 847.456 73.8219 848.466 81.0601C849.049 85.24 851.23 87.4905 855.199 88.7007C865.793 91.9316 876.057 96.2069 887.034 102.218C883.233 97.2105 880.104 93.3159 877.209 89.2299C870.067 79.1467 866.137 67.5998 864.225 55.2183C863.86 52.8567 862.987 50.0081 865.021 48.1938C867.218 46.2346 869.403 48.221 871.392 49.3137C889.222 59.1096 900.415 75.1265 907.902 94.5038C909.664 99.0628 910.971 103.831 912.352 108.549C913.312 111.828 914.145 115.194 911.29 118.084C918.666 124.561 925.777 130.587 931.927 137.734C934.136 140.301 936.01 138.588 938.246 137.723C938.077 132.691 937.043 127.918 935.884 123.145C935.315 120.802 934.358 117.763 937.038 116.51C940.218 115.024 941.244 118.444 942.42 120.607C946.812 128.684 948.858 137.635 949.073 146.81C949.328 157.68 952.254 167.213 958.175 175.978C960.851 179.939 962.755 184.499 965.521 188.683C963.669 177.058 964.046 165.425 964.148 153.807C964.208 146.976 965.954 140.672 969.736 135.09C972.081 131.628 974.209 131.426 976.803 135.047C984.597 145.928 988.915 158.253 990.252 171.772C991.813 187.551 989.835 202.673 984.163 217.567C981.81 223.748 980.123 230.687 982.469 238.329C986.516 251.511 987.958 265.411 989.335 280.748C992.531 270.474 995.553 261.555 1000.45 253.565C1003.49 248.598 1006.79 243.865 1011.47 240.558C1014.5 238.422 1016.74 239.273 1016.85 243.376C1017.06 251.351 1017.43 259.324 1015.92 267.266C1013.41 280.382 1006.88 290.417 996.051 296.885C990.808 300.016 988.356 304.107 988.267 310.487C988.181 316.709 987.442 322.92 986.922 330.062C990.689 327.996 992.853 325.289 995.176 322.783C996.55 321.301 997.933 319.795 999.488 318.553C1000.76 317.535 1002.33 316.704 1003.87 318.106C1005.19 319.311 1004.75 320.908 1004.33 322.356C1002.58 328.341 999.395 333.787 994.962 337.358C985.041 345.35 980.509 356.156 976.831 368.385C970.593 389.128 959.566 407.092 945.635 422.972C945.037 423.655 944.523 424.422 944.036 425.063C944.182 425.619 944.168 426.097 944.381 426.293C946.161 427.935 949.514 428.436 948.909 431.871C948.318 435.223 945.117 435.415 942.681 436.409C938.629 438.06 933.819 436.305 929.217 440.017C939.4 440.017 948.664 440.138 957.923 439.957C961.631 439.885 965.334 439.202 969.025 438.684C970.438 438.486 971.971 437.801 972.929 439.356C974.05 441.177 972.726 442.57 971.758 443.913C961.121 458.681 947.218 467.937 930.244 471.794C918.183 474.535 906.166 473.035 894.351 470.121C889.556 468.939 887.187 470.439 885.173 474.946C881.797 482.5 877.849 489.759 872.877 496.273C871.489 498.091 869.843 500.871 867.258 499.309C864.674 497.748 866.176 494.9 866.772 492.603C868.351 486.525 871.508 481.164 874.099 474.888C870.895 474.738 869.465 476.874 867.862 478.666C853.012 495.265 836.226 509.228 817.76 520.895C815.772 522.151 813.728 523.309 811.675 524.439C809.964 525.381 808.059 526.878 806.327 524.961C804.791 523.26 806.192 521.349 806.913 519.695C809.601 513.53 813.757 508.564 818.615 504.333C826.037 497.87 833.629 491.632 842.264 484.36C818.599 490.055 795.917 491.03 772.173 489.528C776.65 493.989 773.718 496.481 771.071 498.738C757.242 510.533 741.447 512.404 724.703 508.88C721.411 508.188 718.161 507.077 715.016 505.808C710.146 503.843 709.753 502.304 712.72 497.856C717.012 491.42 722.867 487.294 729.85 484.964C732.373 484.122 734.966 483.515 739.004 482.388C730.4 479.06 723.251 475.61 716.248 471.827C715.659 471.508 714.752 471.27 714.214 471.527C701.984 477.38 689.578 471.248 677.259 472.097C671.848 472.47 666.259 471.562 660.961 469.809C658.996 469.158 656.324 468.555 656.551 465.695C656.776 462.869 659.562 462.487 661.531 462.392C667.191 462.117 672.869 462.295 678.573 462.008C656.034 457.846 634.408 450.775 613.894 439.948C612.779 439.359 611.605 438.893 610.515 438.259C609.115 437.444 607.456 436.618 607.757 434.528C608.049 432.495 609.798 431.919 611.37 431.717C617.938 430.873 624.459 430.846 630.871 433.089C648.409 439.227 666.276 444.337 683.188 452.424C683.605 452.624 684.155 452.505 685.856 452.609C681.101 449.032 677.264 446.1 673.386 443.235C635.232 415.047 600.705 382.241 567.541 347.703C560.886 340.772 553.32 335.097 545.905 329.196C542.896 326.802 541.08 328.583 539.109 330.769C531.772 338.903 523.212 344.61 512.647 346.747C490.92 351.14 471.108 339.355 464.769 318.037C459.686 300.947 466.776 280.86 481.827 271.019C485.816 268.41 486.633 266.378 484.636 261.647C482.159 255.781 478.843 250.961 474.619 246.481C452.144 222.645 428.948 199.647 404.489 176.506C408.068 185.839 411.84 194.042 414.242 202.795C415.393 206.988 416.443 211.217 417.428 215.458C417.887 217.435 418.849 219.936 416.82 221.22C414.556 222.652 413.374 220.011 412.127 218.598C400.401 205.308 392.035 189.644 384.403 173.448C379.497 163.035 376.819 151.074 367.012 143.988C358.03 137.499 349.073 130.965 339.994 124.636C337.064 122.593 334.268 120.152 329.958 118.948C331.727 122.433 333.283 125.295 334.643 128.26C335.366 129.836 335.701 131.666 333.955 132.831C332.49 133.808 331.187 132.886 330.103 131.874C327.426 129.374 324.899 126.683 322.153 124.276C320.355 122.699 318.812 120.359 315.697 122.283C313.8 123.455 312.529 121.039 311.55 119.601C308.306 114.835 304.937 110.117 302.212 105.015C300.571 101.939 298.498 100.291 295.56 99.0481C284.132 94.2125 272.438 90.4512 260.327 88.1895C256.943 87.5576 253.616 87.0235 250.707 90.5955C247.948 85.3672 243.37 86.2339 238.117 85.6648C242.796 90.7386 247.668 94.1299 251.266 98.9742C254.823 103.764 258.065 108.744 260.767 114.116C263.252 119.055 261.91 121.201 256.579 120.802C252.834 120.522 249.266 119.319 245.809 117.759C234.843 112.811 224.983 105.919 217.178 96.3704C210.064 87.6678 202.199 85.1503 191.658 87.6699C163.25 94.4601 135.712 103.276 111.741 121.846C110.782 122.589 109.452 122.964 109.069 125.349C115.737 124.732 122.128 124.041 128.082 121.033C137.713 116.166 147.138 110.788 157.429 107.594C160.58 106.617 163.808 105.507 168.096 108.425C160.436 112.644 151.406 111.425 146.022 119.503C157.499 121.739 168.67 120.232 180.225 118.977C179.709 123.739 176.697 124.745 174.061 126.003C168.319 128.743 162.057 128.771 156.218 127.732C133.553 123.695 113.711 132.471 93.5757 141.59C82.4477 146.629 76.3529 156.028 70.1106 165.942C81.5315 157.26 94.61 153.246 107.91 149.825C113.812 148.307 114.996 149.42 113.302 155.422C108.87 171.119 101.072 184.508 89.0503 194.843C80.8628 201.882 71.406 205.272 60.9526 205.531C49.6025 205.812 49.6022 205.795 47.3823 218.7C49.2775 216.89 50.8861 215.28 52.5702 213.767C54.1085 212.384 55.8031 211.038 57.7615 212.854C59.4949 214.461 59.2387 216.557 58.5412 218.647C56.5173 224.711 53.2098 230.192 48.6619 234.001C43.2915 238.498 42.0085 244.25 41.175 250.698C39.2426 265.647 38.9288 280.654 39.5483 295.702C39.5934 296.797 39.9315 297.877 40.3014 299.869C45.7793 290.707 50.8174 282.281 55.8533 273.855C56.5233 272.734 57.1205 271.555 57.8626 270.493C58.7123 269.276 59.6724 267.878 61.3372 268.628C62.949 269.354 62.8568 271.072 62.7191 272.592C61.4954 286.102 59.5818 299.294 52.4681 311.132C42.8447 327.147 42.802 327.381 47.9115 345.8C58.5869 384.281 78.2745 416.445 107.533 441.7C109.692 443.563 112.058 445.15 114.194 446.763C116.016 445.028 115.133 443.847 114.503 442.766C104.782 426.079 103.77 407.245 102.842 388.397C102.76 386.731 102.537 384.565 104.441 383.986C106.624 383.321 107.461 385.511 108.344 387.107C115.912 400.769 121.6 415.31 125.709 430.553C127.482 437.128 129.098 443.759 130.533 450.426C131.373 454.33 132.938 455.833 136.87 454.845C142.603 453.404 148.164 451.568 153.515 448.951C160.808 445.385 162.403 441.824 159.844 433.547C158.35 428.714 157.623 424.272 161.82 420.556C162.538 419.921 163.323 419.562 164.345 419.996C165.931 421.635 164.546 424.023 165.86 426.682C167.725 420.721 170.342 415.943 175.308 413.105C179.925 410.467 184.41 410.425 189.064 412.883C192.994 414.958 196.514 418.162 201.335 417.872C202.738 417.788 203.442 419.121 203.735 420.517C205.615 429.457 205.17 438.027 199.415 445.344C195.325 450.545 189.417 450.463 183.684 450.602C182.798 452.001 185.17 452.749 183.923 454.561C179.996 455.703 175.938 454.608 172.111 452.62C169.1 451.057 166.511 451.325 163.529 452.835C156.364 456.462 149.042 459.731 141.277 463.382C144.896 466.76 148.987 468.198 152.853 469.783C185.515 483.169 219.162 487.462 253.809 481.772C261.308 480.541 264.346 476.668 265.96 468.454C269.564 450.115 278.138 434.914 292.006 423.337C294.525 421.234 297.349 419.614 300.414 418.478C306.051 416.389 307.756 417.662 306.843 423.978C305.006 436.7 298.838 447.047 290.703 456.158C285.779 461.672 280.028 466.188 274.446 470.895C272.365 472.65 270.261 474.389 269.582 477.852C273.75 477.915 277.288 476.178 280.926 474.983C297.663 469.486 313.07 460.8 328.495 452.161C330.45 451.067 332.102 449.681 332.516 447.174C334.795 433.394 342.768 423.555 352.262 414.907C358.483 409.24 365.019 403.968 371.444 398.559C372.54 397.635 373.686 396.611 375.284 397.095C376.705 402.166 375.254 405.591 361.912 428.476C365.704 426.979 368.483 424.536 370.906 422.013C382.836 409.597 392.994 396.07 392.722 376.838C392.656 372.136 391.804 367.96 387.835 364.883C384.605 362.378 382.779 358.457 381.629 354.422C380.382 350.05 378.262 348.353 373.709 348.139C365.051 347.732 357.954 343.537 354.145 334.68C350.885 327.1 352.803 320.943 359.48 316.692C361.148 315.631 362.928 314.423 364.778 314.107C370.173 313.187 372.506 311.344 371.926 304.308C371.167 295.102 379.82 289.721 387.804 293.386C389.822 294.313 391.424 294.585 393.265 293.376C393.706 293.087 394.279 292.852 394.78 292.875C403.424 293.272 411.92 295.608 420.712 294.651C423.037 294.398 424.661 297.561 425.595 300.159C426.757 303.391 427.656 306.786 427.284 310.19C426.631 316.175 428.43 319.291 434.357 320.169C439.137 320.878 443.459 323.351 446.222 328.073C450.876 336.026 447.678 343.925 439.043 345.552C437.157 345.908 435.208 345.875 433.233 346.026C432.492 348.679 431.103 351.076 433.744 353.369C435.083 354.532 434.445 356.132 433.922 357.59C430.034 368.425 426.533 379.437 421.351 389.685C416.407 399.462 409.791 407.459 400.127 412.103C398.906 412.69 397.582 413.945 396.238 412.496C394.946 411.103 395.753 409.61 396.506 408.331C401.089 400.55 403.773 391.813 407.245 383.49C411.33 373.695 417.819 366.06 425.208 358.696C416.767 357.474 416.81 357.509 412.165 364.085C411 365.734 409.704 367.788 408.052 368.438C402.443 370.645 400.899 375.33 399.675 380.963C397.336 391.729 393.224 401.893 389.473 412.173C387.966 416.303 385.5 419.187 382.173 421.637C374.169 427.531 366.291 433.622 358.631 440.392C366.359 437.889 374.101 435.434 381.81 432.866C387.355 431.019 393.022 430.95 398.7 431.476C400.72 431.664 403.399 431.871 403.696 434.737C403.965 437.331 401.464 437.783 399.783 438.725C378.651 450.565 356.182 457.912 332.629 461.87C338.523 461.668 344.417 461.039 350.238 462.309C352.269 462.752 354.979 462.837 355.204 465.673C355.433 468.562 352.783 469.093 350.795 469.738C343.24 472.189 335.392 472.274 327.611 472.793C320.559 473.263 313.247 474.376 306.503 473.964C288.473 472.863 274.316 485.985 256.977 486.848C261.118 490.316 265.848 491.903 269.618 495.332C272.696 498.132 274.855 501.517 276.638 505.257C278.064 508.246 277.186 510.138 274.201 511.436C257.492 518.702 230.037 512.456 218.06 498.539C214.765 494.71 214.68 494.345 216.263 490.028C200.275 488.75 184.379 487.267 168.384 483.433C173.24 487.495 178.048 491.626 182.966 495.602C188.504 500.078 193.977 504.613 198.634 510.175C200.899 512.881 203.016 515.714 204.39 519.049C205.206 521.032 206.935 523.334 204.846 525.3C203.003 527.034 201.167 525.116 199.521 524.18C178.131 512.02 159.43 496.111 142.841 477.282C140.927 475.109 139.173 472.773 137.345 470.513C136.883 470.9 136.422 471.288 135.96 471.675C137.617 475.131 139.274 478.587 141.117 482.424ZM482.06 325.245C494.694 345.532 519.416 345.454 535.135 327.088C537.878 323.884 537.631 321.963 534.605 319.297C519.903 306.345 506.053 292.415 493.998 276.587C490.998 272.648 489.027 273.049 486.077 276.491C474.716 289.748 472.963 307.824 482.06 325.245ZM969.308 182.183C970.919 191.921 973.908 201.191 977.269 210.352C978.713 198.102 976.425 185.996 977.364 173.767C981.475 182.232 980.913 191.779 982.895 201.337C984.782 197.523 984.737 193.995 985.065 190.665C986.603 175.031 985.115 159.866 977.816 145.86C976.817 143.943 975.611 141.377 973.094 142.012C970.71 142.613 970.471 145.346 970.117 147.586C968.353 158.731 968.491 169.947 969.308 182.183ZM41.8798 197.662C48.0228 181.913 50.2036 165.531 48.4243 148.593C47.8917 143.523 48.3992 137.965 44.4835 133.865C33.6344 141.517 28.2463 172.897 34.5572 192.549C35.4015 187.245 35.9506 182.819 36.8416 178.474C37.7242 174.169 36.8777 169.218 40.376 164.943C42.4146 168.287 41.3785 170.901 41.0331 173.375C39.8446 181.889 40.4122 190.437 40.4814 198.972C40.4895 199.968 41.1545 199.201 41.437 198.809C41.5426 198.662 41.5906 198.468 41.8798 197.662ZM221.074 491.575C219.338 494.109 221.829 494.85 222.877 495.899C230.55 503.577 239.815 507.846 250.14 508.834C257.074 509.497 264.256 510.248 270.876 506.645C268.186 494.04 247.757 487.482 235.676 491.091C236.202 493.188 239.816 492.907 238.956 496.594C233.163 494.87 227.447 493.169 221.074 491.575ZM723.285 503.523C741.264 508.18 764.213 502.25 768.974 491.506C762.446 490.707 756.424 494.625 749.991 494.255C749.849 490.787 753.253 491.522 753.623 489.278C738.472 484.687 722.277 489.828 717.888 500.62C719.007 502.305 720.874 502.514 723.285 503.523ZM875.554 77.1503C881.142 88.9585 889.52 97.8933 900.65 105.277C897.501 96.1154 891.267 89.5667 888.62 81.1544C889.163 80.7363 889.706 80.3183 890.25 79.9003C893.962 85.0554 897.673 90.2106 901.385 95.3657C896.26 77.4739 885.054 65.1565 870.647 54.7506C869.54 61.4777 870.328 64.874 875.554 77.1503ZM102.095 111.428C117.628 99.6874 127.569 84.2305 129.774 63.5366C115.783 72.9675 103.981 84.3057 98.8341 101.754C102.127 99.0215 104.22 95.2898 106.447 91.6492C107.401 90.0885 108.139 86.9653 110.603 88.9033C112.583 90.4605 110.412 92.295 109.589 93.7963C106.539 99.3583 103.348 104.831 100.317 110.405C99.5901 111.741 99.1645 113.455 102.095 111.428ZM928.668 191.621C943.388 197.356 951.475 197.606 956.658 192.212C953.402 191.362 950.339 190.501 947.249 189.775C944.387 189.103 940.954 189.974 938.864 186.191C942.202 183.867 945.664 186.666 948.747 185.139C938.093 176.38 915.346 172.691 906.245 178.576C912.455 185.1 920.445 187.696 928.668 191.621ZM27.6447 382.766C35.7491 389.114 45.219 391.465 55.704 394.436C50.2564 388.26 50.2611 388.259 48.687 381.395C48.6069 381.046 48.321 380.753 48.1401 380.428C43.115 371.396 29.3925 364.737 19.9609 366.754C15.956 367.611 15.1201 369.617 17.631 373.055C20.2687 376.666 23.6378 379.506 27.6447 382.766ZM742.933 69.9269C733.1 72.4822 723.143 74.7241 713.024 74.1297C707.094 73.7814 704.666 76.4043 703.659 82.1877C727.503 77.4116 751.899 79.6652 775.724 74.2022C765.414 69.5009 754.785 68.5107 742.933 69.9269ZM997.807 267.916C994.956 274.701 992.768 281.675 992.116 289.776C995.594 285.193 995.774 279.596 998.66 274.404C1001.37 280.308 998.039 284.27 997.3 288.877C1008.39 281.632 1015.77 258.634 1010.25 248.533C1004.77 253.773 1001.59 260.555 997.807 267.916ZM834.39 82.5914C837.82 83.1373 841.266 85.3074 845.118 82.6385C840.491 78.2312 834.098 76.9404 830.729 71.3065C833.423 69.1117 835.049 72.4033 837.967 71.3029C826.979 65.2698 816.821 59.2042 804.357 60.3525C813.584 68.6455 822.389 77.3184 834.39 82.5914ZM747.231 106.767C756.351 102.046 764.493 95.9424 771.611 87.2152C766.095 88.016 763.92 93.6421 758.809 95.4802C759.339 89.1553 764.442 87.7342 766.751 83.9562C753.982 84.1024 739.168 96.6763 735.83 110.465C739.751 110.219 743.065 108.423 747.231 106.767ZM251.484 108.44C244.536 97.8593 236.642 88.8057 222.836 87.6805C225.147 92.0941 230.234 93.4444 230.213 99.3026C225.744 97.6741 223.762 93.0695 218.492 91.9009C228.559 103.687 239.563 111.331 253.332 114.606C253.738 111.946 252.549 110.626 251.484 108.44ZM94.2694 464.294C98.0235 464.334 101.802 464.469 105.159 461.516C99.516 457.665 92.5505 459.872 86.891 455.757C89.9224 453.23 92.62 455.148 95.83 454.274C85.4928 448.614 75.7204 444.434 63.1357 447.749C72.0582 458.159 82.2157 462.234 94.2694 464.294ZM17.4385 276.902C19.8989 274.749 20.0073 277.134 20.2883 278.711C20.8152 281.667 21.9697 284.272 23.7214 287.855C22.881 273.614 13.5096 254.103 6.20819 250.329C2.4922 262.873 9.17902 283.053 19.5826 289.513C18.2336 285.391 17.1726 281.612 17.4385 276.902ZM617.139 184.407C620.936 177.288 624.457 170.038 626.476 162.029C610.172 172.996 605.015 190.873 600.635 209.268C607.367 202.24 612.259 193.84 617.139 184.407ZM107.626 397.749C109.072 416.223 110.569 434.677 125.135 449.86C124.456 439.833 121.761 431.985 119.441 424.155C116.645 414.717 114.057 405.021 107.626 397.749ZM384.602 161.138C383.679 162.316 384.626 163.347 384.993 164.251C391.099 179.289 398.883 193.291 407.943 206.488C408.533 207.348 409.069 208.506 411.346 208.213C406.374 189.892 400.997 172.302 384.602 161.138ZM627.512 436.656C624.635 436.656 621.758 436.656 618.88 436.656C638.57 447.312 659.074 454.545 680.974 456.727C663.783 449.055 646.416 441.958 627.512 436.656ZM332.364 456.961C355.747 453.329 387.061 442.637 393.181 436.187C391.803 435.417 390.415 435.919 389.018 436.126C373.045 438.49 358.28 445.14 343.317 451.04C339.41 452.58 335.112 453.384 332.364 456.961ZM153.175 478.2C151.899 477.456 150.622 476.713 149.346 475.97C162.623 493.088 178.457 506.408 196.971 516C184.444 501.025 169.256 489.627 153.175 478.2ZM854.105 486.422C855.498 484.359 857.929 483.169 858.219 479.953C841.617 489.596 826.538 501.279 814.115 516.644C828.93 509.219 841.756 498.855 854.105 486.422ZM280.832 452.34C283.33 450.017 283.861 444.992 288.55 445.313C289.404 449.106 285.558 450.157 285.428 453.443C295.049 446.055 298.627 435.537 301.052 423.769C290.243 428.581 275.142 449.645 274.848 460.572C276.941 457.729 278.674 455.375 280.832 452.34ZM802.01 457.209C803.481 457.148 804.824 458.724 806.449 457.709C796.767 442.898 783.939 439.189 769.193 446.792C779.849 450.163 790.559 453.552 802.01 457.209ZM939.156 463.976C947.551 460.803 955.065 456.196 961.77 448.395C948.405 451.649 936.028 454.661 922.499 457.954C928.401 461.287 933.506 462.235 939.156 463.976ZM189.483 67.784C180.604 70.0544 171.878 72.7398 163.809 78.2355C165.71 79.6078 167.635 76.5332 168.885 79.2162C168.941 82.4774 165.236 82.5386 164.026 85.3467C170.227 83.4736 176.393 82.5975 181.623 79.7469C186.621 77.0228 192.253 74.2727 195.56 68.6253C193.434 66.8184 191.842 67.4146 189.483 67.784ZM413.949 379.113C409.728 387.012 407.223 395.677 403.234 405.479C416.967 394.43 421.523 379.544 427.084 363.502C421.328 368.417 417.528 373.104 413.949 379.113ZM972.099 293.762C968.007 281.873 960.896 269.02 956.644 265.741C956.996 281.634 965.055 293.854 973.579 306.786C974.426 301.917 973.178 298.299 972.099 293.762ZM634.554 395.588C635.461 395.986 636.022 397.312 637.289 396.781C635.303 387.009 620.598 370.209 609.06 364.653C609.391 365.498 609.66 366.175 609.921 366.855C614.752 379.421 624.749 386.924 634.554 395.588ZM341.389 434.964C340.538 437.188 338.91 439.114 339.085 442.697C350.092 432.039 362.937 424.142 367.659 407.573C357.677 415.557 348.296 423.303 341.389 434.964ZM103.789 163.254C96.6985 172.285 86.9736 178.274 78.2625 187.003C83.7373 188.623 87.5245 190.488 91.4583 186.514C99.0728 178.821 103.924 169.403 108.172 157.779C106.287 160.167 105.285 161.436 103.789 163.254ZM286.644 68.5744C278.595 69.2163 271.934 73.2782 265.499 78.0078C275.462 77.9998 285.244 80.279 295.457 78.9888C294.164 73.6392 292.207 69.8961 286.644 68.5744ZM43.4676 304.254C42.2522 308.505 39.7377 312.756 43.3656 317.586C50.935 306.536 56.6099 295.3 56.7989 280.483C51.5299 288.36 47.0476 295.488 43.4676 304.254ZM625.095 137.891C623.922 139.368 622.75 140.844 621.171 142.834C634.56 138.614 643.441 129.577 651.4 118.469C647.771 116.656 645.454 118.254 643.031 119.912C636.212 124.578 630.909 130.953 625.095 137.891ZM361.778 117.588C359.013 118.44 360.76 119.739 361.588 120.74C363.929 123.568 366.23 126.46 368.787 129.056C374.425 134.781 380.568 139.681 388.63 141.81C385.059 134.682 372.126 120.886 366.564 118.304C365.325 117.729 363.837 117.772 361.778 117.588ZM857.427 111.295C849.688 100.146 841.966 101.524 834.706 115.787C842.837 116.602 850.885 112.211 858.506 116.637C859.49 114.421 858.212 113.312 857.427 111.295ZM377.796 339.006C377.178 334.352 378.632 329.765 378.651 324.904C374.565 324.691 371.856 326.921 369.261 329.021C366.619 331.158 362.909 333.754 363.623 337.298C364.405 341.184 368.799 341.885 372.302 342.486C374.543 342.87 377.47 344.514 377.796 339.006ZM687.14 81.1898C688.611 83.2155 689.207 87.3907 692.812 84.9246C696.624 82.3168 699.935 78.9559 700.421 73.0102C694.699 72.2144 690.72 67.9847 685.843 65.0621C683.17 70.9492 685.555 75.6406 687.14 81.1898ZM182.642 415.132C174.557 417.809 170.866 423.453 172.803 431.273C179.115 424.378 188.128 426.254 196.283 422.733C193.423 420.903 191.445 419.687 189.515 418.388C187.573 417.081 185.744 415.551 182.642 415.132ZM317.547 74.8215C324.655 72.9467 326.414 69.7696 326.98 57.111C319.761 61.0978 314.267 67.9304 305.115 68.6636C308.627 73.2388 312.116 75.2147 317.547 74.8215ZM871.472 391.165C871.655 387.276 874.895 384.131 874.123 379.637C869.669 379.863 865.962 381.532 862.461 383.71C860.318 385.044 857.783 386.676 857.871 389.553C857.958 392.444 860.692 393.681 862.845 394.985C863.766 395.543 864.784 395.929 865.778 396.334C869.585 397.882 871.62 396.704 871.472 391.165ZM457.817 210.65C461.241 211.72 464.666 212.791 469.337 214.251C459.748 203.6 449.525 197.579 436.477 195.427C441.888 203.725 448.973 207.826 457.817 210.65ZM901.71 466.381C911.456 468.6 921.195 470.475 931.861 465.866C926.459 463.771 922.125 461.398 917.537 460.48C911.29 459.23 905.675 462.259 900.319 465.487C900.584 465.72 900.85 465.953 901.71 466.381ZM100.496 156.748C89.4333 158.604 83.3114 165.248 82.9385 177.536C90.1097 173.319 100.904 162.603 103.647 156.988C102.932 156.156 102.04 156.51 100.496 156.748ZM821.911 455.78C816.171 450.97 809.729 447.867 802.211 446.104C810.317 459.197 819.949 464.954 828.821 462.243C827.277 459.533 824.701 458.136 821.911 455.78ZM358.166 93.4901C352.894 91.6115 347.483 91.0096 341.956 91.3569C349.318 101.607 359.869 101.237 371.488 102.463C367.566 97.0131 363.077 95.6969 358.166 93.4901ZM841.314 120.791C838.64 121.532 835.746 121.524 833.352 123.134C835.494 133.136 842.314 136.601 849.633 131.603C845.278 130.15 840.306 130.345 836.061 125.647C843.083 125.093 849.404 128.381 855.848 123.929C851.161 120.001 846.883 119.248 841.314 120.791ZM316.147 58.4436C319.159 55.8859 322.17 53.3282 325.162 50.7869C319.25 42.4498 310.95 42.4101 307.505 50.2104C311.918 49.7076 316.174 46.2412 321.813 49.1623C316.155 53.7009 308.313 52.6674 304.876 59.9099C309.074 62.0865 312.262 60.5104 316.147 58.4436ZM891.255 390.746C886.916 389.565 884.189 392.745 883.644 399.623C883.332 403.559 885.797 406.458 889.376 405.855C894.101 405.059 894.947 400.766 896.163 396.692C897.502 392.207 894.139 392.258 891.255 390.746ZM177.564 437.472C179.512 440.23 181.834 438.601 183.828 437.814C187.879 436.214 191.801 434.236 196.561 432.054C195.436 439.315 188.883 439.157 185.562 443.013C192.781 444.581 198.253 440.38 198.704 433.455C198.822 431.656 198.757 429.466 196.638 429.646C189.731 430.232 182.207 429.241 177.564 437.472ZM402.27 339.075C403.606 332.694 399.274 332.52 395.399 331.909C390.665 331.163 391.83 335.368 391.123 337.928C390.826 339 390.9 340.184 390.714 341.298C390.258 344.021 390.637 346.075 393.551 347.018C396.465 347.96 398.868 347.474 400.495 344.722C401.319 343.327 401.595 341.56 402.27 339.075ZM711.188 51.2608C709.644 49.9963 708.088 48.7469 706.558 47.4638C704.043 45.3557 702.374 45.9483 700.543 48.803C696.629 54.9074 696.58 55.5519 703.108 59.3121C705.124 60.473 707.288 62.8853 709.859 60.4749C712.34 58.1491 713.619 55.3906 711.188 51.2608ZM412.434 350.852C414.5 351.622 416.482 353.339 419.131 351.341C418.126 344.107 414.879 338.328 409.759 333.214C405.486 340.443 406.295 345.863 412.434 350.852ZM907.946 401.442C906.637 398.942 905.998 395.8 902.902 394.863C896.455 406.488 899.081 411.012 910.002 414.396C910.547 410.106 909.406 406.172 907.946 401.442ZM710.649 36.3925C708.886 37.048 706.768 37.1222 705.851 40.2241C709.219 42.3142 711.957 46.5669 716.532 45.3132C720.363 44.2635 723.802 41.7698 724.661 36.4401C720.097 34.9305 715.813 34.9694 710.649 36.3925ZM394.699 357.89C399.524 355.983 404.65 358.097 410.205 357.361C408.301 353.683 405.54 350.546 403.426 351.468C397.401 354.098 392.057 352.418 386.448 350.153C387.389 357.81 388.489 358.923 394.699 357.89ZM76.1488 169.083C73.6573 175.118 70.5834 180.947 69.8045 187.948C80.7207 183.764 79.1388 172.89 82.8581 164.432C79.3328 164.499 77.9092 166.387 76.1488 169.083ZM927.66 451.817C930.773 453.674 933.519 451.352 936.364 450.786C943.635 449.341 950.908 447.772 957.776 444.662C947.538 445.403 936.238 440.732 927.66 451.817ZM778.658 457.533C789.302 464.114 790.935 464.324 799.837 459.983C790.318 456.887 781.217 453.68 770.722 451.815C773.285 454.727 775.639 455.924 778.658 457.533ZM60.6321 199.158C60.5265 199.309 60.3753 199.445 60.3283 199.614C60.2826 199.779 60.2996 200.12 60.3639 200.143C66.1853 202.223 78.854 197.973 82.6375 192.691C77.5836 189.895 72.9116 189.678 68.3588 194.173C66.339 196.167 63.5641 197.282 60.6321 199.158ZM364.491 320.144C357.58 324.523 356.536 327.625 360.473 333.828C364.007 327.419 369.761 323.912 376 320.3C371.621 316.299 368.462 319.229 364.491 320.144ZM871.789 373.892C866.446 370.983 859.252 371.927 855.762 376.063C853.528 378.711 853.023 381.5 855.604 385.223C859.809 378.961 866.627 378.362 871.789 373.892ZM885.364 410.892C882.923 409.445 880.482 407.999 877.561 406.267C877.633 410.047 877.5 414.402 880.641 414.886C886.918 415.854 893.322 416.126 899.725 417.579C897.572 413.714 896.235 409.004 890.739 411.852C889.284 412.605 887.606 411.845 885.364 410.892ZM57.7363 193.041C57.4671 194.055 56.8125 195.847 58.4765 195.389C61.3395 194.602 64.3909 193.465 65.5394 189.978C67.4526 184.168 69.2403 178.311 71.3997 171.464C63.9273 177.211 61.9348 185.48 57.7363 193.041ZM685.02 87.0806C683.55 80.5445 682.081 74.0085 680.569 67.2823C675.756 70.966 675.155 82.0674 679.145 86.0827C680.655 87.6026 682.385 88.3258 685.02 87.0806ZM721.221 10.858C720.349 9.79623 719.328 8.83999 718.067 10.0039C713.769 13.9708 709.808 18.2705 705.885 23.9621C718.93 21.6593 721.483 19.4981 721.221 10.858ZM429.715 338.28C431.993 339.418 434.36 340.026 436.896 339.755C438.512 339.582 439.393 338.626 439.854 336.999C440.307 335.4 439.689 334.389 438.421 333.814C433.569 331.61 428.767 329.194 422.901 328.526C424.966 332.2 426.49 335.397 429.715 338.28ZM918.033 393.457C919.013 395.895 919.956 398.351 920.981 400.768C922.592 404.567 925.949 405.32 929.268 405.962C930.808 406.259 931.986 405.32 932.723 403.854C933.459 402.387 932.9 401.164 931.76 400.431C927.335 397.588 923.486 393.504 918.033 393.457ZM655.707 91.0374C654.677 91.3865 653.16 90.5116 652.696 92.3562C658.429 97.2884 671.387 98.1895 676.493 93.8135C669.987 90.7348 663.221 91.2717 655.707 91.0374ZM670.733 60.7003C672.653 60.8302 674.571 61.0432 676.492 61.0634C677.999 61.0793 679.333 60.5592 679.402 58.5879C679.468 56.6802 679.514 54.3171 677.383 53.9462C673.196 53.2179 668.924 52.9901 664.629 54.4108C665.651 57.8529 667.733 59.1903 670.733 60.7003ZM679.463 420.003C678.187 417.545 678.095 414.338 674.932 411.512C674.312 421.841 677.152 429.635 682.339 438.266C683.398 431.029 681.145 426.012 679.463 420.003ZM384.883 310.95C383.894 306.923 382.566 303.084 379.858 299.902C375.223 305.016 375.495 309.98 380.597 316.331C382.559 315.376 384.327 314.217 384.883 310.95ZM882.964 369.38C883.556 364.411 882.55 359.932 879.942 355.594C875.175 360.278 874.706 366.398 878.229 371.958C879.888 371.945 881.209 371.012 882.964 369.38ZM418.566 338.753C420.264 342.794 421.962 346.835 423.723 351.028C427.28 347.647 427.403 347.17 425.967 343.621C423.265 336.943 418.761 332.009 415.473 332.187C414.926 334.897 417.266 336.107 418.566 338.753ZM916.046 402.827C914.05 399.861 914.864 394.283 908.342 393.796C911.285 401.075 913.74 407.407 914.079 414.864C920.45 411.546 917.741 407.484 916.046 402.827ZM725.658 48.6316C722.091 47.33 719.234 49.5701 718.754 52.4707C717.996 57.05 716.526 61.098 713.879 65.1122C717.269 66.0639 719.892 66.1107 720.633 62.3615C721.571 57.6176 723.987 53.6259 725.658 48.6316ZM692.741 461.164C692.181 462.788 690.101 462.262 689.003 463.624C695.123 466.098 700.567 469.563 708.003 467.103C703.729 464.268 700.18 461.916 696.633 459.56C695.12 458.555 693.967 458.966 692.741 461.164ZM657.525 99.238C651.875 98.4973 648.985 102.102 646.433 106.881C654.236 108.625 656.673 107.454 661.418 99.7522C660.276 99.573 659.284 99.4173 657.525 99.238ZM711.511 32.3655C716.261 30.8501 721.148 31.6406 726.173 32.2073C725.099 27.8064 724.417 26.4627 722.069 26.6293C716.684 27.0116 711.188 27.5053 706.527 31.1798C707.986 33.9086 709.424 32.6176 711.511 32.3655ZM662.784 418.404C664.836 421.909 668.07 422.813 671.701 423.498C670.227 414.699 668.935 413.317 660.607 411.286C660.412 413.698 661.625 415.626 662.784 418.404ZM681.368 39.7133C682.418 35.8465 678.496 35.5629 677.282 33.2976C676.497 31.8331 675.171 30.5237 673.364 32.0314C671.444 33.634 670.199 35.708 670.634 38.391C671.015 40.7352 672.977 40.2962 674.488 40.3334C676.59 40.3851 678.696 40.2504 681.368 39.7133ZM403.247 299.46C400.612 298.109 396.73 296.646 395.555 299.393C393.957 303.128 396.812 306.831 399.191 310.594C401.998 307.071 403.442 303.831 403.247 299.46ZM901.932 364.323C902.65 362.972 904.714 361.732 903.069 360.026C900.84 357.714 898.109 356.584 894.725 358.464C895.19 362.214 895.117 366.042 896.858 369.423C899.912 369.273 900.196 366.535 901.932 364.323ZM692.42 51.4284C693.22 49.9054 695.224 48.5637 693.445 46.5562C692.026 44.9544 690.469 46.2335 689.072 46.8508C683.879 49.1443 683.048 51.795 685.591 57.8261C688.303 56.6344 689.872 54.0106 692.42 51.4284ZM682.177 30.5166C685.024 33.4783 686.701 31.7997 688.35 28.8989C684.885 25.4855 682.791 21.3872 680.882 16.0185C677.751 21.7131 678.994 25.8821 682.177 30.5166ZM698.154 30.5434C691.88 34.1094 691.479 38.6675 697.206 43.2765C699.195 41.2056 699.978 38.4291 700.41 35.7042C700.697 33.8925 702.417 31.0453 698.154 30.5434ZM908.099 388.103C910.577 386.736 909.356 385.076 908.386 383.483C907.226 381.578 905.675 380.667 903.466 381.21C900.439 381.954 898.024 383.302 897.339 386.946C903.208 388.895 903.208 388.895 908.099 388.103ZM917.233 363.721C912.693 361.906 907.591 364.241 905.448 368.913C903.825 372.449 906.336 373.053 908.439 374.496C910.801 370.326 913.705 367.046 917.233 363.721ZM417.201 302.118C419.412 299.761 417.831 299.205 415.918 299.504C411.543 300.188 408.757 303.119 407.172 307.451C406.511 309.258 406.617 310.696 408.581 311.543C410.323 312.294 411.237 311.425 411.892 309.9C413.077 307.14 414.675 304.703 417.201 302.118ZM629.49 99.2488C636.376 98.8102 642.879 96.1648 650.475 96.3408C647.608 92.0482 644.745 91.9473 641.66 92.9228C637.403 94.2689 633.312 96.0305 629.49 99.2488ZM389.793 323.947C391.125 324.411 392.445 324.918 393.791 325.326C395.088 325.721 396.585 326.701 397.602 325.025C398.551 323.461 397.46 322.23 396.552 321.039C393.083 316.487 390.226 316.493 385.716 321.173C386.443 322.613 387.918 322.903 389.793 323.947ZM661.56 393.372C664.772 399.152 667.985 404.933 671.356 411C673.645 404.774 666.835 392.787 660.943 391.801C660.969 391.984 660.974 392.174 661.026 392.349C661.079 392.527 661.177 392.69 661.56 393.372ZM410.843 320.341C405.404 319.816 403.48 321.358 402.798 327.172C406.652 327.448 410.443 328.054 413.657 325.329C414.11 322.857 412.589 321.957 410.843 320.341ZM892.336 378.989C889.371 374.479 886.019 374.545 881.967 377.884C884.114 380.762 886.674 382.348 889.374 383.713C890.584 384.325 891.883 385.692 893.196 384.268C894.615 382.729 893.657 381.135 892.336 378.989ZM882.274 385.601C879.796 383.702 878.842 385.401 878.031 387.615C876.602 391.515 875.193 395.381 879.924 399.04C880.472 394.152 884.65 390.988 882.274 385.601ZM834.793 468.49C831.489 467.928 828.18 467.392 824.88 466.799C820.543 466.019 818.877 466.547 815.299 469.987C821.848 470.675 828.344 471.061 834.856 470.218C835.597 470.122 835.596 470.117 834.793 468.49ZM927.281 445.857C921.239 446.835 915.595 448.452 912.859 456.682C919.894 455.424 923.769 450.747 927.281 445.857ZM696.18 58.6522C693.221 56.8765 692.237 58.9842 691.213 61.2071C696.882 67.1675 699.853 67.9205 703.584 64.2274C701.266 62.4868 699.001 60.7847 696.18 58.6522ZM809.779 463.543C805.58 463.654 801.455 464.165 797.172 465.836C802.868 469.609 808.188 470.322 813.489 464.623C812.748 463.561 811.591 463.816 809.779 463.543ZM415.321 313.944C417.215 315.465 419.582 317.075 421.321 314.65C423.596 311.476 421.784 308.001 420.902 304.251C417.337 306.57 415.759 309.538 415.321 313.944ZM386.665 329.117C381.499 331.995 381.306 338.019 386.844 342.862C386.229 337.949 390.765 334.009 386.665 329.117ZM913.582 372.767C909.875 378.821 915.303 377.826 917.788 379.508C920.105 375.853 919.751 372.245 919.508 368.482C916.813 368.773 915.516 370.64 913.582 372.767ZM690.844 25.1612C692.994 24.1151 694.683 22.672 694.922 19.6848C692.052 18.1419 689.501 15.7661 685.707 16.5008C685.715 20.4959 687.37 23.1146 690.844 25.1612ZM659.036 404.888C660.714 407.248 663.148 408.037 666.214 409.25C664.3 403.536 661.622 399.356 658.153 394.961C657.373 398.599 658.363 401.313 659.036 404.888ZM645.223 102.126C645.62 101.233 645.3 100.463 644.464 100.55C640.323 100.979 636.167 101.427 631.545 103.475C636.728 106.278 641.013 108.191 645.223 102.126ZM673.823 49.7046C675.627 49.4356 677.777 50.5321 679.087 48.2179C675.697 44.4325 671.278 44.7718 666.132 49.7013C668.797 49.7013 670.865 49.7013 673.823 49.7046ZM887.851 358.209C887.154 357.44 886.746 356.2 884.751 356.581C886.265 360.788 885.911 365.474 888.798 370.583C891.737 365.544 889.81 362.202 887.851 358.209ZM384.731 299.87C389.374 310.563 389.374 310.563 392.165 310.344C391.218 303.807 389.387 301.103 384.731 299.87ZM427.131 323.924C425.249 323.415 423.367 322.906 421.485 322.397C421.443 322.645 421.4 322.893 421.357 323.14C427.78 325.464 434.202 327.788 441.857 330.558C437.374 325.531 432.266 325.846 427.131 323.924ZM705.801 17.8895C708.975 14.2765 712.15 10.6635 715.325 7.05054C709.906 8.97891 707.03 13.5789 704.255 18.286C704.5 18.4022 704.737 18.5706 704.993 18.6118C705.115 18.6314 705.271 18.4096 705.801 17.8895ZM933.34 396.778C933.802 396.756 934.265 396.735 934.727 396.713C934.699 396.528 934.729 396.292 934.633 396.167C931.46 392.035 926.988 390.492 922.325 389.297C925.825 391.683 929.325 394.07 933.34 396.778Z" fill="#C5586E"/>
<path d="M937.237 238.797C930.375 233.421 925.42 226.913 922.369 218.794C921.538 216.583 920.957 214.32 923.213 212.69C925.522 211.022 927.116 212.738 928.769 214.265C935.041 220.055 938.124 227.905 941.01 235.881C941.459 237.12 941.768 238.579 940.764 239.64C939.566 240.908 938.519 239.826 937.237 238.797Z" fill="#C5586E"/>
<path d="M790.873 175.354C804.286 175.354 814.973 177.316 822.934 181.242C823.479 181.569 823.97 181.896 824.406 182.224C824.951 182.442 825.333 182.66 825.551 182.878C825.769 183.096 825.932 183.26 826.042 183.369C826.26 183.478 826.423 183.532 826.532 183.532L826.696 183.696C826.914 183.696 827.132 183.478 827.35 183.042C827.677 182.496 827.895 181.787 828.004 180.915C828.222 179.934 828.332 178.952 828.332 177.971H828.986C830.949 185.386 831.821 192.965 831.603 200.708C831.494 209.431 829.64 218.374 826.042 227.534H825.387C827.241 210.522 823.315 198.363 813.61 191.057C808.485 187.24 802.269 184.732 794.962 183.532C787.656 182.224 780.132 182.169 772.389 183.369C755.159 191.329 746.544 203.379 746.544 219.519C746.544 238.82 758.867 254.796 783.512 267.446C804.668 278.024 819.662 288.547 828.495 299.016C837.328 309.484 841.527 322.516 841.09 338.11C840.654 354.249 833.893 367.444 820.807 377.695C807.721 387.945 792.563 393.071 775.333 393.071C757.449 393.071 743.491 390.508 733.458 385.383C733.349 385.274 732.968 385.001 732.313 384.565C731.659 384.129 731.059 383.693 730.514 383.256C729.969 382.711 729.26 382.057 728.388 381.293C727.624 380.421 726.916 379.494 726.261 378.513C725.716 377.422 725.171 376.223 724.625 374.914C724.08 373.496 723.644 371.861 723.317 370.007C722.99 368.044 722.826 366.027 722.826 363.955C722.826 352.832 724.625 342.417 728.224 332.712L729.206 333.039C727.897 340.782 728.497 348.033 731.005 354.794C733.622 361.556 737.548 367.226 742.782 371.806C748.017 376.386 754.341 379.985 761.757 382.602C769.281 385.219 777.187 386.473 785.475 386.364C795.617 384.51 804.014 380.257 810.666 373.605C817.427 366.844 821.08 357.902 821.625 346.779C821.952 340.018 821.08 333.966 819.008 328.623C816.936 323.279 813.501 318.426 808.703 314.064C803.904 309.593 798.834 305.722 793.49 302.451C788.147 299.179 781.222 295.417 772.716 291.164C742.837 276.551 728.115 255.123 728.551 226.879C728.769 211.394 734.549 198.963 745.89 189.584C757.34 180.097 772.335 175.354 790.873 175.354ZM750.634 195.637C743.655 203.379 740.165 211.34 740.165 219.519C740.165 228.788 743.218 236.476 749.325 242.583C745.29 235.931 743.273 228.243 743.273 219.519C743.273 211.667 745.727 203.706 750.634 195.637ZM737.875 250.271C739.075 258.013 742.728 264.829 748.834 270.717C755.05 276.606 763.229 282.222 773.371 287.565C787.656 294.763 798.997 301.742 807.394 308.503C815.9 315.155 821.298 322.025 823.588 329.113C821.952 319.735 816.772 311.665 808.048 304.904C799.761 298.361 788.419 291.437 774.025 284.13C754.287 274.207 742.237 262.92 737.875 250.271ZM728.878 355.449C728.878 362.21 730.787 367.826 734.604 372.297C739.293 377.858 746.544 381.512 756.359 383.256C747.199 379.876 740.383 375.296 735.912 369.516C732.313 365.372 729.969 360.683 728.878 355.449Z" fill="#C5586E"/>
<path d="M240.873 175.354C254.286 175.354 264.973 177.316 272.934 181.242C273.479 181.569 273.97 181.896 274.406 182.224C274.951 182.442 275.333 182.66 275.551 182.878C275.769 183.096 275.932 183.26 276.042 183.369C276.26 183.478 276.423 183.532 276.532 183.532L276.696 183.696C276.914 183.696 277.132 183.478 277.35 183.042C277.677 182.496 277.895 181.787 278.004 180.915C278.222 179.934 278.332 178.952 278.332 177.971H278.986C280.949 185.386 281.821 192.965 281.603 200.708C281.494 209.431 279.64 218.374 276.042 227.534H275.387C277.241 210.522 273.315 198.363 263.61 191.057C258.485 187.24 252.269 184.732 244.962 183.532C237.656 182.224 230.132 182.169 222.389 183.369C205.159 191.329 196.544 203.379 196.544 219.519C196.544 238.82 208.867 254.796 233.512 267.446C254.668 278.024 269.662 288.547 278.495 299.016C287.328 309.484 291.527 322.516 291.09 338.11C290.654 354.249 283.893 367.444 270.807 377.695C257.721 387.945 242.563 393.071 225.333 393.071C207.449 393.071 193.491 390.508 183.458 385.383C183.349 385.274 182.968 385.001 182.313 384.565C181.659 384.129 181.059 383.693 180.514 383.256C179.969 382.711 179.26 382.057 178.388 381.293C177.624 380.421 176.916 379.494 176.261 378.513C175.716 377.422 175.171 376.223 174.625 374.914C174.08 373.496 173.644 371.861 173.317 370.007C172.99 368.044 172.826 366.027 172.826 363.955C172.826 352.832 174.625 342.417 178.224 332.712L179.206 333.039C177.897 340.782 178.497 348.033 181.005 354.794C183.622 361.556 187.548 367.226 192.782 371.806C198.017 376.386 204.341 379.985 211.757 382.602C219.281 385.219 227.187 386.473 235.475 386.364C245.617 384.51 254.014 380.257 260.666 373.605C267.427 366.844 271.08 357.902 271.625 346.779C271.952 340.018 271.08 333.966 269.008 328.623C266.936 323.279 263.501 318.426 258.703 314.064C253.904 309.593 248.834 305.722 243.49 302.451C238.147 299.179 231.222 295.417 222.716 291.164C192.837 276.551 178.115 255.123 178.551 226.879C178.769 211.394 184.549 198.963 195.89 189.584C207.34 180.097 222.335 175.354 240.873 175.354ZM200.634 195.637C193.655 203.379 190.165 211.34 190.165 219.519C190.165 228.788 193.218 236.476 199.325 242.583C195.29 235.931 193.273 228.243 193.273 219.519C193.273 211.667 195.727 203.706 200.634 195.637ZM187.875 250.271C189.075 258.013 192.728 264.829 198.834 270.717C205.05 276.606 213.229 282.222 223.371 287.565C237.656 294.763 248.997 301.742 257.394 308.503C265.9 315.155 271.298 322.025 273.588 329.113C271.952 319.735 266.772 311.665 258.048 304.904C249.761 298.361 238.419 291.437 224.025 284.13C204.287 274.207 192.237 262.92 187.875 250.271ZM178.878 355.449C178.878 362.21 180.787 367.826 184.604 372.297C189.293 377.858 196.544 381.512 206.359 383.256C197.199 379.876 190.383 375.296 185.912 369.516C182.313 365.372 179.969 360.683 178.878 355.449Z" fill="#C5586E"/>
</svg>
